<svg width="407" height="401" viewBox="0 0 407 401" fill="none" xmlns="http://www.w3.org/2000/svg">
<path d="M247.376 13.44C275.572 20.7916 304.07 28.2255 327.502 45.5302C351.239 63.0604 369.034 87.1639 382.639 113.333C396.424 139.847 406.711 168.555 406.993 198.43C407.276 228.351 398.521 257.801 384.253 284.111C370.319 309.802 349.016 330.219 325.845 348.054C302.974 365.658 277.544 378.953 249.96 387.474C221.212 396.355 190.94 405.228 161.542 398.81C132.12 392.387 109.318 370.492 85.8423 351.648C62.52 332.928 38.6521 314.325 23.8983 288.326C8.76416 261.656 -1.42237 231.275 0.161805 200.66C1.72133 170.521 18.5783 144.048 32.7432 117.392C46.4611 91.5763 60.5828 65.9866 82.1944 46.2841C104.464 25.9816 130.019 7.6302 159.59 1.75051C188.91 -4.07947 218.449 5.89798 247.376 13.44Z" fill="#89ABBD" fill-opacity="0.8"/>
</svg>
